<?xml version="1.0" encoding="UTF-8"?>
<svg width="752pt" height="752pt" version="1.1" viewBox="0 0 752 752" xmlns="http://www.w3.org/2000/svg">
 <defs>
  <clipPath id="b">
   <path d="m187 139.21h72v472.79h-72z"/>
  </clipPath>
  <clipPath id="a">
   <path d="m347 139.21h71v472.79h-71z"/>
  </clipPath>
 </defs>
 <g clip-path="url(#b)">
  <path d="m249.02 611.12h-52.277c-5.2109 0-9.4727-4.2617-9.4727-9.4727v-452.45c0-5.2109 4.2617-9.4727 9.4727-9.4727h52.277c5.2109 0 9.4727 4.2617 9.4727 9.4727v452.44c0 5.2148-4.2617 9.4766-9.4727 9.4766z" fill="#fff"/>
 </g>
 <path d="m329.08 611.12h-51.543c-5.2109 0-9.4727-4.2617-9.4727-9.4727v-385.82c0-5.2109 4.2617-9.4727 9.4727-9.4727h51.543c5.2109 0 9.4727 4.2617 9.4727 9.4727v385.81c0 5.2148-4.2617 9.4766-9.4727 9.4766z" fill="#fff"/>
 <g clip-path="url(#a)">
  <path d="m408.41 611.12h-51.543c-5.2109 0-9.4727-4.2617-9.4727-9.4727l0.003907-453.09c0-5.2109 4.2617-9.4727 9.4727-9.4727h51.543c5.2109 0 9.4727 4.2617 9.4727 9.4727v453.09c-0.007813 5.2109-4.2695 9.4727-9.4766 9.4727z" fill="#fff"/>
 </g>
 <path d="m580.29 596.54-49.379 14.77c-4.9922 1.4922-10.297-1.3672-11.789-6.3594l-95.715-319.95c-1.4922-4.9922 1.3672-10.297 6.3594-11.789l49.379-14.77c4.9922-1.4922 10.297 1.3672 11.789 6.3594l95.715 319.95c1.4922 4.9844-1.3672 10.293-6.3594 11.785z" fill="#fff"/>
</svg>
